<svg xmlns="http://www.w3.org/2000/svg" xmlns:xlink="http://www.w3.org/1999/xlink" xmlns:sketch="http://www.bohemiancoding.com/sketch/ns" width="726px" height="255px" viewBox="0 0 726 255" version="1.1"><style>.style0{fill:	none;fill-rule:	evenodd;}.style1{fill:	white;}.style10{mask:	url(#mask-18);fill:	#FFFFFF;}.style11{mask:	url(#mask-20);fill:	#FFFFFF;}.style12{mask:	url(#mask-22);fill:	#FFFFFF;}.style13{mask:	url(#mask-24);fill:	#FFFFFF;}.style14{mask:	url(#mask-26);fill:	#FFFFFF;}.style15{mask:	url(#mask-28);fill:	#FFFFFF;}.style16{mask:	url(#mask-30);fill:	#FFFFFF;}.style17{mask:	url(#mask-32);fill:	#FFFFFF;}.style18{mask:	url(#mask-34);fill:	#FFFFFF;}.style19{mask:	url(#mask-36);fill:	#FFFFFF;}.style2{mask:	url(#mask-2);fill:	#E8772A;}.style20{mask:	url(#mask-38);fill:	#FFFFFF;}.style21{mask:	url(#mask-40);fill:	#FFFFFF;}.style22{mask:	url(#mask-42);fill:	#FFFFFF;}.style23{mask:	url(#mask-44);fill:	#FFFFFF;}.style24{mask:	url(#mask-46);fill:	#FFFFFF;}.style25{mask:	url(#mask-48);fill:	#FFFFFF;}.style26{mask:	url(#mask-50);fill:	#FFFFFF;}.style27{mask:	url(#mask-52);fill:	#FFFFFF;}.style28{mask:	url(#mask-54);fill:	#FFFFFF;}.style29{mask:	url(#mask-56);fill:	#FFFFFF;}.style3{mask:	url(#mask-4);fill:	#FFFFFF;}.style30{mask:	url(#mask-58);fill:	#FFFFFF;}.style4{mask:	url(#mask-6);fill:	#FFFFFF;}.style5{mask:	url(#mask-8);fill:	#FFFFFF;}.style6{mask:	url(#mask-10);fill:	#FFFFFF;}.style7{mask:	url(#mask-12);fill:	#FFFFFF;}.style8{mask:	url(#mask-14);fill:	#FFFFFF;}.style9{mask:	url(#mask-16);fill:	#FFFFFF;}</style><!-- Generator: Sketch 3.0.2 (7799) - http://www.bohemiancoding.com/sketch --><title>proxtra_logo_inv</title><description>Created with Sketch.</description><defs><path id="path-1" d="M0 -0.2 L247.199 -0.2 L247.199 246.9 L0 246.9 L0 -0.2 L0 -0.2 Z"/><path d="M6.546 6.4 C7.596 6.4 8.5 6.4 8.5 5.1 C8.516 4.1 7.6 4 6.8 4 L5.083 4 L5.083 6.4 L6.546 6.4 L6.546 6.4 Z M5.083 10.9 L3.883 10.9 L3.883 2.9 L6.94 2.9 C8.854 2.9 9.9 3.6 9.9 5.2 C9.859 6.6 8.9 7.2 7.7 7.4 L10.001 10.9 L8.674 10.9 L6.546 7.4 L5.083 7.4 L5.083 10.9 L5.083 10.9 Z M6.584 12.6 C9.776 12.6 12.3 10.2 12.3 6.9 C12.259 3.6 9.8 1.1 6.6 1.1 C3.386 1.1 0.9 3.6 0.9 6.9 C0.934 10.2 3.4 12.6 6.6 12.6 L6.584 12.6 Z M-0.455 6.9 C-0.455 2.9 2.8 -0.1 6.6 -0.1 C10.326 -0.1 13.6 2.9 13.6 6.9 C13.586 10.9 10.3 13.8 6.6 13.8 C2.806 13.8 -0.5 10.9 -0.5 6.9 L-0.455 6.9 Z" id="path-3"/><path d="M64.022 61.2 C66.171 56.6 64.2 54.1 62.4 52.3 L24.639 14.5 C22.836 12.7 20.4 10.7 15.6 12.9 L11.414 8.7 C28.262 -5.3 48 -0.1 62.5 14.5 C76.989 28.9 82.3 48.6 68.3 65.5 L64.022 61.2 L64.022 61.2 Z M12.387 16.2 C10.191 20.9 12.1 23.4 14 25.2 L51.732 63 C53.542 64.8 56 66.7 60.7 64.5 L64.956 68.7 C48.11 82.8 28.5 77.5 13.9 63 C-0.589 48.5 -5.8 28.8 8.1 12 L12.387 16.2 L12.387 16.2 Z" id="path-5"/><path id="path-7" d="M109.413 50.5 C108.356 49.5 107.1 49.5 105.9 50.1 C102.474 51.9 102.2 51.3 99.5 48.7 L61.259 10.4 C58.527 7.7 58 7.4 59.7 4 C60.382 2.8 60.4 1.5 59.4 0.5 C57.305 -1.7 54.7 0.6 54.4 0.9 L35.237 20.1 L50.915 49.2 L50.749 49.4 L20.587 34.7 L2.036 53.2 C1.213 54.1 -1 56.3 1.3 58.6 C3.031 60.3 5.1 58.5 6.1 57.7 C7.393 56.5 8.6 57.1 10.3 57.6 C11.842 57.9 13.3 58.7 14.8 59.4 L75.131 89.3 L77.297 87.2 L47.74 32.6 L81.566 66.5 C84.329 69.3 84.8 69.6 83.1 72.9 C82.391 74.2 82.4 75.5 83.5 76.5 C85.521 78.6 88.1 76.4 88.4 76.1 L108.984 55.5 C109.302 55.2 111.6 52.6 109.4 50.5 L109.413 50.5 Z"/><path id="path-9" d="M28.386 21 L15.848 8.4 L-0.276 0.5 L-0.396 0.7 L24.176 25.2 C32.127 35.5 24.6 37.3 27.7 40.5 C30.068 42.7 32.9 39.6 33.7 38.8 L42.002 30.5 C42.751 29.7 45.9 26.9 43.6 24.6 C40.502 21.5 38.6 29 28.4 21 L28.386 21 Z"/><path id="path-11" d="M-0.222 5.4 C6.72 -1.6 17.3 -2.7 28.5 7.5 C38.512 16.7 37.3 29.3 30.5 36.1 L28.053 33.8 C30.288 30.9 28.1 28.4 26.5 26.9 L9.028 9.4 C7.48 7.8 5 5.6 2.2 7.8 L-0.222 5.4 L-0.222 5.4 Z"/><path d="M27.431 23.2 C28.757 21 27.9 18.6 26.7 16.7 C26.239 15.8 25.8 14.9 26.7 14 C27.928 12.7 29.2 14.4 29.6 14.8 L38.438 23.6 C38.785 23.9 40.4 25.2 39.1 26.5 C38.272 27.4 37.4 26.9 36.5 26.4 C34.553 25.2 32.2 24.4 30 25.7 L27.431 23.2 L27.431 23.2 Z M42.083 37.8 C45.001 34 45.3 29.2 43.1 24.9 C42.805 23.9 42.3 23.1 43.1 22.3 C44.39 21 45.5 22.4 45.7 22.5 L53.851 30.7 L44.442 40.1 L42.083 37.8 L42.083 37.8 Z M13.738 9.4 L22.927 0.3 L31.309 8.6 C31.414 8.8 32.2 9.6 31 10.9 C30.236 11.6 29.6 11.4 28.9 10.9 C24.481 8.7 20.3 8.8 16.2 11.8 L13.738 9.4 L13.738 9.4 Z M1.024 22.1 L11.919 11.3 L42.563 42 L31.776 52.8 C31.625 53 30.2 54.2 29 53 C28.433 52.5 28.4 51.7 28.8 51 C29.755 49.1 29.5 48.9 27.9 47.5 L6.479 26 C4.934 24.4 4.8 24.2 2.9 25.1 C2.195 25.5 1.4 25.5 0.9 24.9 C-0.347 23.7 0.9 22.3 1 22.1 L1.024 22.1 Z" id="path-13"/><path d="M6.414 23.9 C4.914 22.5 4.8 22.2 2.9 23.1 C2.083 23.5 1.4 23.5 0.8 22.9 C-0.368 21.8 1 20.3 1.1 20.2 L11.892 9.3 L38.001 35.4 C39.466 36.9 39.7 37.2 41.6 36.2 C42.28 35.9 43 35.9 43.6 36.4 C44.837 37.6 43.5 39 43.4 39.2 L31.763 50.8 C31.559 51 30.5 51.9 29.3 50.7 C28.73 50.1 28.6 49.5 29 48.9 C29.953 47 29.5 47 27.9 45.4 L6.414 23.9 L6.414 23.9 Z M13.785 7.4 C17.694 3.6 20.3 1.7 23.4 0.8 C28.202 -0.4 32.1 1.2 35.6 4.6 C38.975 8 40.5 11.9 39.3 16.8 C38.508 19.8 36.6 22.5 32.7 26.5 L30.344 24 C32.329 21.2 30.7 19.3 28.7 17.3 L22.589 11.2 C20.71 9.3 18.6 8 16.1 9.9 L13.785 7.4 L13.785 7.4 Z" id="path-15"/><path d="M35.739 34.3 C36.982 31.6 35.9 30.3 34.9 29.2 L13.64 8 C12.652 6.9 11.2 5.9 8.6 7.1 L6.203 4.8 C15.67 -3.1 26.7 -0.2 35 8 C43.055 16.2 46 27.2 38.1 36.7 L35.739 34.3 L35.739 34.3 Z M6.707 9 C5.508 11.6 6.6 13 7.6 14 L28.872 35.3 C29.915 36.3 31.2 37.4 33.9 36.1 L36.333 38.5 C26.851 46.5 15.8 43.5 7.5 35.3 C-0.649 27.2 -3.5 16.1 4.4 6.6 L6.707 9 L6.707 9 Z" id="path-17"/><path d="M0.279 23.7 L5.892 18.2 L8.079 20.4 C7.505 23.8 9.5 26.8 11.2 29.3 C11.957 30.2 12.8 31.4 11.7 32.5 C10.524 33.7 9.5 32.8 9.3 32.7 L0.279 23.7 L0.279 23.7 Z M33.3 8.7 C33.444 8.8 34.3 9.9 33.2 11 C32.084 12.1 30.9 11.3 29.9 10.6 C27.521 8.9 24.5 6.9 21 7.5 L18.786 5.2 L24.353 -0.4 L33.3 8.7 L33.3 8.7 Z M7.598 16.3 L17.087 6.9 L41.562 31.5 C42.995 32.9 43.1 33.2 44.9 32.3 C45.621 31.9 46.3 31.9 46.8 32.4 C47.928 33.5 46.8 34.9 46.6 35 L35.738 46 C35.556 46.1 34.2 47.3 33.1 46.2 C32.537 45.7 32.5 45 32.9 44.3 C33.852 42.5 33.6 42.3 32.1 40.9 L7.598 16.3 L7.598 16.3 Z" id="path-19"/><path d="M31.517 26 L28.107 29.5 L25.883 27.3 L29.316 23.9 L20.564 15.1 C19.123 13.6 18.9 13.4 17.1 14.3 C16.498 14.6 15.7 14.6 15.3 14.1 C14.121 13 15.3 11.7 15.5 11.5 L26.387 0.6 C26.56 0.5 27.9 -0.8 29 0.3 C29.51 0.9 29.5 1.6 29.2 2.3 C28.252 4 28.5 4.2 30 5.7 L50.183 25.9 C51.578 27.3 51.8 27.6 53.6 26.6 C54.227 26.3 55 26.3 55.5 26.8 C56.565 27.9 55.4 29.3 55.2 29.4 L44.328 40.3 C44.176 40.5 42.8 41.7 41.7 40.6 C41.144 40 41.1 39.3 41.5 38.7 C42.487 36.9 42.2 36.7 40.8 35.3 L31.517 26 L31.517 26 Z M35.644 40.4 C37.064 41.8 37.3 42.1 39 41.2 C39.71 40.9 40.3 40.9 40.9 41.4 C41.952 42.5 40.8 43.9 40.7 44 L29.752 54.9 C29.579 55 28.3 56.3 27.1 55.1 C26.629 54.6 26.6 53.9 27 53.3 C27.821 51.5 27.6 51.3 26.2 49.9 L5.928 29.7 C4.54 28.3 4.3 28 2.5 28.9 C1.905 29.2 1.2 29.2 0.7 28.7 C-0.462 27.6 0.8 26.2 1 26 L11.804 15.2 C11.977 15 13.3 13.8 14.4 15 C14.957 15.5 15 16.2 14.6 16.8 C13.735 18.6 13.9 18.8 15.4 20.2 L35.644 40.4 L35.644 40.4 Z" id="path-21"/><path d="M25.845 21.9 C26.999 19.9 26.2 17.7 25.1 15.8 C24.653 15 24.3 14.1 25.1 13.3 C26.274 12.1 27.5 13.7 27.8 14 L36.111 22.4 C36.408 22.7 38 23.9 36.8 25 C36.021 25.9 35.1 25.5 34.3 25 C32.484 23.9 30.3 23.1 28.2 24.3 L25.845 21.9 L25.845 21.9 Z M39.507 35.7 C42.3 32.1 42.6 27.6 40.5 23.5 C40.149 22.7 39.8 21.8 40.5 21.1 C41.762 19.9 42.8 21.1 42.9 21.3 L50.667 29 L41.762 37.9 L39.507 35.7 L39.507 35.7 Z M12.952 9.1 L21.559 0.5 L29.39 8.3 C29.586 8.5 30.3 9.2 29.1 10.4 C28.508 11 27.9 10.9 27 10.5 C22.999 8.3 19.1 8.4 15.2 11.3 L12.952 9.1 L12.952 9.1 Z M1.017 21 L11.207 10.7 L40.097 39.6 L29.842 49.8 C29.7 49.9 28.4 51.2 27.2 50 C26.712 49.5 26.7 48.8 27 48.2 C28.001 46.4 27.7 46.2 26.3 44.7 L6.085 24.6 C4.645 23.1 4.5 22.8 2.7 23.7 C2.012 24.1 1.4 24.1 0.8 23.6 C-0.274 22.5 0.9 21.1 1 21 L1.017 21 Z" id="path-23"/><path id="path-25" d="M77.031 50.9 C76.036 49.8 74.7 49.8 73.5 50.5 C70.143 52.3 69.7 51.8 67.1 49.1 L28.815 10.8 C26.121 8.1 25.6 7.7 27.4 4.4 C28.023 3.2 28 1.9 27 0.8 C24.922 -1.3 22.3 1 22.1 1.3 L1.503 21.9 C1.21 22.2 -1.1 24.7 1 26.9 C2.039 27.9 3.3 27.9 4.6 27.2 C7.969 25.5 8.3 26 11 28.7 L27.523 45.3 L21.195 51.6 L25.413 55.8 L31.795 49.4 L49.26 66.9 C51.954 69.6 52.4 70 50.7 73.3 C50.06 74.5 50.1 75.9 51.1 76.9 C53.214 79 55.7 76.8 56 76.4 L76.646 55.8 C76.895 55.6 79.2 53 77 50.9 L77.031 50.9 Z"/><path id="path-27" d="M72.577 51.4 C71.513 50.4 70.2 50.4 69 51.1 C65.659 52.8 65.3 52.3 62.6 49.6 L24.3 11.3 C21.637 8.6 21.1 8.3 22.9 4.9 C23.539 3.6 23.5 2.4 22.5 1.3 C20.438 -0.8 17.8 1.5 17.6 1.8 L0 19.3 L0 27.8 C0 27.8 0 27.7 0.1 27.7 C3.485 26 3.8 26.5 6.5 29.2 L44.73 67.4 C47.424 70.2 47.9 70.5 46.2 73.8 C46.171 73.9 46.2 73.9 46.1 74 L54.478 74 L72.125 56.4 C72.366 56.1 74.7 53.5 72.6 51.4 L72.577 51.4 Z"/><path id="path-29" d="M29.235 39.1 C29.055 39.4 29 39.7 28.8 39.9 L33.649 39.9 L42.605 30.9 L11.951 0.3 L1.391 10.8 C0.628 11.6 -0.2 12.7 0.8 13.8 C1.775 14.8 2.7 14.2 3.8 13.6 C4.838 13.1 5.9 14.3 6.5 14.9 L28.043 36.4 C28.617 37 29.8 38.1 29.2 39.1 L29.235 39.1 Z"/><path id="path-31" d="M7.916 2 L5.539 -0.3 L-0.347 5.6 L9.169 15.2 C9.349 15.4 10.5 16.2 11.7 14.9 C12.848 13.8 12 12.6 11.3 11.5 C9.432 9 7.3 5.8 7.9 2 L7.916 2 Z"/><path id="path-33" d="M12.13 11.6 C13.185 12.4 14.4 13.2 15.6 12.1 C16.876 10.9 15.9 9.7 15.8 9.6 L6.245 -0 L0.307 6 L2.676 8.3 C6.304 7.7 9.7 9.8 12.1 11.6 L12.13 11.6 Z"/><path id="path-35" d="M40.199 26.7 C38.199 27.7 38 27.4 36.5 25.9 L10.414 -0.2 L0.349 9.8 L26.497 36 C28.051 37.4 28.3 37.7 27.3 39.5 C26.936 40.2 26.9 41 27.5 41.5 C28.686 42.7 30.2 41.4 30.3 41.3 L40.199 31.5 L40.199 26.7 L40.199 26.7 Z"/><path id="path-37" d="M0.98 0.5 C-0.603 2 0.1 3.6 1 5.2 C3.152 8.6 4.6 12.9 2.4 16.7 L6.872 21.2 C10.734 19 15 20.4 18.4 22.5 C20.015 23.4 21.6 24.2 23.2 22.6 C25.424 20.4 22.4 18.1 21.8 17.6 L6.043 1.8 C5.491 1.2 3.2 -1.8 1 0.5 L0.98 0.5 Z"/><path id="path-39" d="M1.489 18.8 C1.192 19.1 -1.1 21.7 1.1 23.8 C2.076 24.8 3.4 24.8 4.6 24.2 C7.983 22.4 8.3 22.9 11.1 25.6 L49.349 63.9 C52.012 66.6 52.5 67 50.7 70.3 C50.112 71.5 50.1 72.8 51.2 73.8 C53.266 75.9 55.8 73.7 56.1 73.4 L75.324 54.2 L20.697 -0.4 L1.489 18.8 L1.489 18.8 Z"/><path id="path-41" d="M15.199 10 L6.712 1.6 C6.387 1.3 4.5 -1.1 2.1 1.2 C0.758 2.5 1.6 4.1 2.1 5.7 C6.001 13.5 5.5 22.1 0.3 28.7 L4.561 32.9 L15.199 22.4 L15.199 10 L15.199 10 Z"/><path id="path-43" d="M31.09 8.9 L21.961 -0.2 L10.503 -0.2 L-0.029 10.3 L4.217 14.5 C11.657 9.2 18.9 9 26.7 13.1 C28.216 13.8 29.3 14.1 30.6 12.9 C32.734 10.7 31.4 9.3 31.1 8.9 L31.09 8.9 Z"/><path d="M44.059 77.8 L51.44 77.8 C67.321 77.8 83 77.8 83 57.2 C82.979 35.9 68.4 35.7 51.4 35.7 L44.059 35.7 L44.059 77.8 L44.059 77.8 Z M0.218 0.4 L67.321 0.4 C103.558 0.4 128.6 17.1 128.6 55.8 C128.609 95.7 107.1 113.1 68.9 113.1 L44.059 113.1 L44.059 169 L0.218 169 L0.218 0.4 L0.218 0.4 Z" id="path-45"/><path d="M44.058 76 L48.308 76 C62.625 76 78.7 73.3 78.7 54.9 C78.728 36.6 62.6 33.9 48.3 33.9 L44.058 33.9 L44.058 76 L44.058 76 Z M140.464 169 L85.886 169 L44.505 104.2 L44.058 104.2 L44.058 169 L0.218 169 L0.218 0.4 L65.755 0.4 C99.083 0.4 124.4 16.2 124.4 52.3 C124.359 75.5 111.4 95.7 87.5 99.9 L140.464 169 L140.464 169 Z" id="path-47"/><path d="M99.9240418 0 L86.5596881 0 C40.6747325 3.1 -0 37.9 -0 86.6 C-0.034 141.1 39.1 179.6 93.2 179.6 C147.371 179.6 186.5 141.1 186.5 86.6 C186.515 37.9 145.8 3.1 99.9 -0 L99.9240418 0 L99.9240418 0 Z M45.597 86.8 C45.597 115.9 67.1 137.1 93.2 137.1 C119.412 137.1 140.9 115.9 140.9 86.8 C140.884 63.5 119.4 42.3 93.2 42.3 C67.07 42.3 45.6 63.5 45.6 86.8 L45.597 86.8 Z" id="path-49"/><path id="path-51" d="M5.026 -0.1 L26.488 -0.1 L36.729 17.2 L46.969 -0.1 L68.43 -0.1 L46.969 31.1 L71.814 67 L50.798 67 L36.729 45.1 L21.323 67 L0.218 67 L26.488 31.1 L5.026 -0.1 L5.026 -0.1 Z"/><path id="path-53" d="M32.183 67 L14.729 67 L14.729 14.7 L0.302 14.7 L0.302 -0.1 L46.609 -0.1 L46.609 14.7 L32.183 14.7 L32.183 67 L32.183 67 Z"/><path d="M16.962 30 L18.654 30 C24.353 30 30.8 28.9 30.8 21.6 C30.765 14.3 24.4 13.2 18.7 13.2 L16.962 13.2 L16.962 30 L16.962 30 Z M55.343 67 L33.615 67 L17.14 41.2 L16.962 41.2 L16.962 67 L-0.493 67 L-0.493 -0.1 L25.599 -0.1 C38.869 -0.1 48.9 6.2 48.9 20.5 C48.931 29.8 43.8 37.8 34.2 39.5 L55.343 67 L55.343 67 Z" id="path-55"/><path d="M34.937 20.6 L34.757 20.6 L27.544 42 L42.06 42 L34.937 20.6 L34.937 20.6 Z M22.736 55.4 L18.105 67 L-0.417 67 L25.408 -0.1 L44.464 -0.1 L69.755 67 L51.144 67 L46.781 55.4 L22.736 55.4 L22.736 55.4 Z" id="path-57"/></defs><g id="Page-1" sketch:type="MSPage" class="style0"><g id="proxtra_logo_inv" sketch:type="MSLayerGroup"><g id="Group-3" transform="translate(0.000000, 8.000000)"><mask id="mask-2" sketch:name="Clip 2" class="style1"><use xlink:href="#path-1"/></mask><g id="Clip-2"/><path d="M0 -0.2 L247.2 -0.2 L247.2 247 L0 247 L0 -0.2 Z" id="Fill-1" sketch:type="MSShapeGroup" class="style2"/></g><g id="Group-6" transform="translate(228.000000, 236.000000)"><mask id="mask-4" sketch:name="Clip 5" class="style1"><use xlink:href="#path-3"/></mask><g id="Clip-5"/><path d="M-0.48 -0.2 L13.68 -0.2 L13.68 13.8 L-0.48 13.8 L-0.48 -0.2 Z" id="Fill-4" sketch:type="MSShapeGroup" class="style3"/></g><g id="Group-9" transform="translate(62.000000, 116.000000)"><mask id="mask-6" sketch:name="Clip 8" class="style1"><use xlink:href="#path-5"/></mask><g id="Clip-8"/><path d="M-0.08 0.4 L76.48 0.4 L76.48 77 L-0.08 77 L-0.08 0.4 Z" id="Fill-7" sketch:type="MSShapeGroup" class="style4"/></g><g id="Group-12" transform="translate(97.000000, 48.000000)"><mask id="mask-8" sketch:name="Clip 11" class="style1"><use xlink:href="#path-7"/></mask><g id="Clip-11"/><path d="M0.2 -0.5 L110.36 -0.5 L110.36 89.4 L0.2 89.4 L0.2 -0.5 Z" id="Fill-10" sketch:type="MSShapeGroup" class="style5"/></g><g id="Group-15" transform="translate(121.000000, 116.000000)"><mask id="mask-10" sketch:name="Clip 14" class="style1"><use xlink:href="#path-9"/></mask><g id="Clip-14"/><path d="M-0.4 0.4 L44.48 0.4 L44.48 41.3 L-0.4 41.3 L-0.4 0.4 Z" id="Fill-13" sketch:type="MSShapeGroup" class="style6"/></g><g id="Group-18" transform="translate(110.000000, 208.000000)"><mask id="mask-12" sketch:name="Clip 17" class="style1"><use xlink:href="#path-11"/></mask><g id="Clip-17"/><path d="M-0.32 -0 L35.8 -0 L35.8 36.2 L-0.32 36.2 L-0.32 -0 Z" id="Fill-16" sketch:type="MSShapeGroup" class="style7"/></g><g id="Group-21" transform="translate(124.000000, 176.000000)"><mask id="mask-14" sketch:name="Clip 20" class="style1"><use xlink:href="#path-13"/></mask><g id="Clip-20"/><path d="M0.32 0.3 L53.96 0.3 L53.96 53.6 L0.32 53.6 L0.32 0.3 Z" id="Fill-19" sketch:type="MSShapeGroup" class="style8"/></g><g id="Group-24" transform="translate(149.000000, 153.000000)"><mask id="mask-16" sketch:name="Clip 23" class="style1"><use xlink:href="#path-15"/></mask><g id="Clip-23"/><path d="M0.28 0.4 L44.2 0.4 L44.2 51.4 L0.28 51.4 L0.28 0.4 Z" id="Fill-22" sketch:type="MSShapeGroup" class="style9"/></g><g id="Group-27" transform="translate(182.000000, 129.000000)"><mask id="mask-18" sketch:name="Clip 26" class="style1"><use xlink:href="#path-17"/></mask><g id="Clip-26"/><path d="M-0.32 0.1 L42.76 0.1 L42.76 43.2 L-0.32 43.2 L-0.32 0.1 Z" id="Fill-25" sketch:type="MSShapeGroup" class="style10"/></g><g id="Group-30" transform="translate(22.000000, 85.000000)"><mask id="mask-20" sketch:name="Clip 29" class="style1"><use xlink:href="#path-19"/></mask><g id="Clip-29"/><path d="M0.2 -0.4 L47.36 -0.4 L47.36 46.6 L0.2 46.6 L0.2 -0.4 Z" id="Fill-28" sketch:type="MSShapeGroup" class="style11"/></g><g id="Group-33" transform="translate(48.000000, 56.000000)"><mask id="mask-22" sketch:name="Clip 32" class="style1"><use xlink:href="#path-21"/></mask><g id="Clip-32"/><path d="M0.12 -0.2 L55.92 -0.2 L55.92 55.6 L0.12 55.6 L0.12 -0.2 Z" id="Fill-31" sketch:type="MSShapeGroup" class="style12"/></g><g id="Group-36" transform="translate(77.000000, 32.000000)"><mask id="mask-24" sketch:name="Clip 35" class="style1"><use xlink:href="#path-23"/></mask><g id="Clip-35"/><path d="M0.28 0.4 L50.68 0.4 L50.68 50.6 L0.28 50.6 L0.28 0.4 Z" id="Fill-34" sketch:type="MSShapeGroup" class="style13"/></g><g id="Group-39" transform="translate(23.000000, 154.000000)"><mask id="mask-26" sketch:name="Clip 38" class="style1"><use xlink:href="#path-25"/></mask><g id="Clip-38"/><path d="M0.04 -0 L78.04 -0 L78.04 77.8 L0.04 77.8 L0.04 -0 Z" id="Fill-37" sketch:type="MSShapeGroup" class="style14"/></g><g id="Group-42" transform="translate(0.000000, 181.000000)"><mask id="mask-28" sketch:name="Clip 41" class="style1"><use xlink:href="#path-27"/></mask><g id="Clip-41"/><path d="M0 0.4 L73.44 0.4 L73.44 74 L0 74 L0 0.4 Z" id="Fill-40" sketch:type="MSShapeGroup" class="style15"/></g><g id="Group-45" transform="translate(96.000000, 215.000000)"><mask id="mask-30" sketch:name="Clip 44" class="style1"><use xlink:href="#path-29"/></mask><g id="Clip-44"/><path d="M0.24 0.3 L42.72 0.3 L42.72 40 L0.24 40 L0.24 0.3 Z" id="Fill-43" sketch:type="MSShapeGroup" class="style16"/></g><g id="Group-48" transform="translate(200.000000, 118.000000)"><mask id="mask-32" sketch:name="Clip 47" class="style1"><use xlink:href="#path-31"/></mask><g id="Clip-47"/><path d="M-0.44 -0.4 L12.28 -0.4 L12.28 15.7 L-0.44 15.7 L-0.44 -0.4 Z" id="Fill-46" sketch:type="MSShapeGroup" class="style17"/></g><g id="Group-51" transform="translate(219.000000, 98.000000)"><mask id="mask-34" sketch:name="Clip 50" class="style1"><use xlink:href="#path-33"/></mask><g id="Clip-50"/><path d="M0.24 -0.1 L16.32 -0.1 L16.32 12.8 L0.24 12.8 L0.24 -0.1 Z" id="Fill-49" sketch:type="MSShapeGroup" class="style18"/></g><g id="Group-54" transform="translate(207.000000, 106.000000)"><mask id="mask-36" sketch:name="Clip 53" class="style1"><use xlink:href="#path-35"/></mask><g id="Clip-53"/><path d="M0.24 -0.3 L40.2 -0.3 L40.2 42.1 L0.24 42.1 L0.24 -0.3 Z" id="Fill-52" sketch:type="MSShapeGroup" class="style19"/></g><g id="Group-57" transform="translate(204.000000, 26.000000)"><mask id="mask-38" sketch:name="Clip 56" class="style1"><use xlink:href="#path-37"/></mask><g id="Clip-56"/><path d="M0 -0.4 L24 -0.4 L24 23.6 L0 23.6 L0 -0.4 Z" id="Fill-55" sketch:type="MSShapeGroup" class="style20"/></g><g id="Group-60" transform="translate(158.000000, 22.000000)"><mask id="mask-40" sketch:name="Clip 59" class="style1"><use xlink:href="#path-39"/></mask><g id="Clip-59"/><path d="M0.16 -0.5 L75.4 -0.5 L75.4 74.7 L0.16 74.7 L0.16 -0.5 Z" id="Fill-58" sketch:type="MSShapeGroup" class="style21"/></g><g id="Group-63" transform="translate(232.000000, 40.000000)"><mask id="mask-42" sketch:name="Clip 62" class="style1"><use xlink:href="#path-41"/></mask><g id="Clip-62"/><path d="M0.32 0.2 L15.2 0.2 L15.2 33 L0.32 33 L0.32 0.2 Z" id="Fill-61" sketch:type="MSShapeGroup" class="style22"/></g><g id="Group-66" transform="translate(182.000000, 8.000000)"><mask id="mask-44" sketch:name="Clip 65" class="style1"><use xlink:href="#path-43"/></mask><g id="Clip-65"/><path d="M-0.08 -0.3 L31.84 -0.3 L31.84 14.6 L-0.08 14.6 L-0.08 -0.3 Z" id="Fill-64" sketch:type="MSShapeGroup" class="style23"/></g><g id="Group-69" transform="translate(271.000000, 5.000000)"><mask id="mask-46" sketch:name="Clip 68" class="style1"><use xlink:href="#path-45"/></mask><g id="Clip-68"/><path d="M0.2 0.3 L128.72 0.3 L128.72 169.1 L0.2 169.1 L0.2 0.3 Z" id="Fill-67" sketch:type="MSShapeGroup" class="style24"/></g><g id="Group-72" transform="translate(407.000000, 5.000000)"><mask id="mask-48" sketch:name="Clip 71" class="style1"><use xlink:href="#path-47"/></mask><g id="Clip-71"/><path d="M0.16 0.3 L140.56 0.3 L140.56 169.1 L0.16 169.1 L0.16 0.3 Z" id="Fill-70" sketch:type="MSShapeGroup" class="style25"/></g><g id="Group-75" transform="translate(539.000000, 0.000000)"><mask id="mask-50" sketch:name="Clip 74" class="style1"><use xlink:href="#path-49"/></mask><g id="Clip-74"/><path d="M-0.08 0 L186.52 0 L186.52 179.6 L-0.08 179.6 L-0.08 0 Z" id="Fill-73" sketch:type="MSShapeGroup" class="style26"/></g><g id="Group-78" transform="translate(267.000000, 187.000000)"><mask id="mask-52" sketch:name="Clip 77" class="style1"><use xlink:href="#path-51"/></mask><g id="Clip-77"/><path d="M0.12 -0.2 L71.88 -0.2 L71.88 67 L0.12 67 L0.12 -0.2 Z" id="Fill-76" sketch:type="MSShapeGroup" class="style27"/></g><g id="Group-81" transform="translate(337.000000, 187.000000)"><mask id="mask-54" sketch:name="Clip 80" class="style1"><use xlink:href="#path-53"/></mask><g id="Clip-80"/><path d="M0.2 -0.2 L46.64 -0.2 L46.64 67 L0.2 67 L0.2 -0.2 Z" id="Fill-79" sketch:type="MSShapeGroup" class="style28"/></g><g id="Group-84" transform="translate(389.000000, 187.000000)"><mask id="mask-56" sketch:name="Clip 83" class="style1"><use xlink:href="#path-55"/></mask><g id="Clip-83"/><path d="M-0.56 -0.2 L55.36 -0.2 L55.36 67 L-0.56 67 L-0.56 -0.2 Z" id="Fill-82" sketch:type="MSShapeGroup" class="style29"/></g><g id="Group-87" transform="translate(442.000000, 187.000000)"><mask id="mask-58" sketch:name="Clip 86" class="style1"><use xlink:href="#path-57"/></mask><g id="Clip-86"/><path d="M-0.52 -0.2 L69.8 -0.2 L69.8 67 L-0.52 67 L-0.52 -0.2 Z" id="Fill-85" sketch:type="MSShapeGroup" class="style30"/></g></g></g></svg>